<?xml version="1.0" encoding="UTF-8"?><!DOCTYPE svg PUBLIC "-//W3C//DTD SVG 1.1//EN" "http://www.w3.org/Graphics/SVG/1.1/DTD/svg11.dtd"><svg xmlns="http://www.w3.org/2000/svg"><symbol id="icon-add" viewBox="0 0 42 42">
    <path d="M42 20H22V0h-2v20H0v2h20v20h2V22h20z"/>
</symbol><symbol id="icon-arrow-down-3" viewBox="0 0 451.847 451.847">
    <path d="M225.923 354.706c-8.098 0-16.195-3.092-22.369-9.263L9.27 151.157c-12.359-12.359-12.359-32.397 0-44.751 12.354-12.354 32.388-12.354 44.748 0l171.905 171.915 171.906-171.909c12.359-12.354 32.391-12.354 44.744 0 12.365 12.354 12.365 32.392 0 44.751L248.292 345.449c-6.177 6.172-14.274 9.257-22.369 9.257z"/>
</symbol><symbol id="icon-clock" viewBox="0 0 372.96 372.96">
    <path d="M186.48 0C83.49 0 0 83.49 0 186.48s83.49 186.48 186.48 186.48 186.48-83.49 186.48-186.48C372.828 83.545 289.415.132 186.48 0zm8 356.56v-32.8a8 8 0 0 0-16 0v32.8C90.759 352.372 20.588 282.201 16.4 194.48h32.8a8 8 0 0 0 0-16H16.4C20.588 90.759 90.759 20.588 178.48 16.4v32.8a8 8 0 0 0 16 0V16.4c87.721 4.188 157.892 74.359 162.08 162.08h-32.8a8 8 0 0 0 0 16H356.64c-4.191 87.75-74.408 157.932-162.16 162.08z"/>
    <path d="M270.88 260.88l-76.4-77.68v-80.72a8 8 0 0 0-16 0v84a8 8 0 0 0 2.32 5.6l78.64 80a8.005 8.005 0 1 0 11.44-11.2z"/>
</symbol><symbol id="icon-contact" viewBox="0 0 512 512">
    <path d="M448 64H64C28.656 64 0 92.656 0 128v256c0 35.344 28.656 64 64 64h384c35.344 0 64-28.656 64-64V128c0-35.344-28.656-64-64-64zM342.656 234.781l135.469-116.094c.938 3 1.875 6 1.875 9.313v256c0 2.219-.844 4.188-1.281 6.281l-136.063-155.5zM448 96c2.125 0 4 .813 6 1.219L256 266.938 58 97.219C60 96.813 61.875 96 64 96h384zM33.266 390.25C32.828 388.156 32 386.219 32 384V128c0-3.313.953-6.313 1.891-9.313L169.313 234.75 33.266 390.25zM64 416c-3.234 0-6.172-.938-9.125-1.844l138.75-158.563 51.969 44.531C248.578 302.719 252.297 304 256 304s7.422-1.281 10.406-3.875l51.969-44.531 138.75 158.563c-2.937.905-5.875 1.843-9.125 1.843H64z"/>
</symbol><symbol id="icon-down-arrow-1" viewBox="0 0 490.688 490.688">
    <path d="M472.328 120.529L245.213 347.665 18.098 120.529c-4.237-4.093-10.99-3.975-15.083.262-3.992 4.134-3.992 10.687 0 14.82l234.667 234.667c4.165 4.164 10.917 4.164 15.083 0l234.667-234.667c4.237-4.093 4.354-10.845.262-15.083-4.093-4.237-10.845-4.354-15.083-.262-.089.086-.176.173-.262.262l-.021.001z"/>
    <path d="M245.213 373.415a10.663 10.663 0 0 1-7.552-3.115L2.994 135.633c-4.093-4.237-3.975-10.99.262-15.083 4.134-3.992 10.687-3.992 14.82 0l227.136 227.115 227.115-227.136c4.093-4.237 10.845-4.354 15.083-.262 4.237 4.093 4.354 10.845.262 15.083-.086.089-.173.176-.262.262L252.744 370.279a10.672 10.672 0 0 1-7.531 3.136z"/>
</symbol><symbol id="icon-down-arrow" viewBox="0 0 453.834 453.834">
    <g>
        <path d="M226.932 0C101.625 0 .03 101.595.03 226.902 0 352.269 101.595 453.834 226.932 453.834c125.307 0 226.871-101.595 226.871-226.902C453.834 101.595 352.239 0 226.932 0zm0 423.465c-108.344 0-196.502-88.158-196.502-196.502S118.588 30.46 226.932 30.46c108.344-.03 196.472 88.128 196.472 196.502.03 108.314-88.128 196.503-196.472 196.503z"/>
        <path d="M313.723 177.199l-87.885 87.915-87.885-87.915c-5.928-5.928-15.565-5.928-21.492 0s-5.928 15.565 0 21.492l98.585 98.585c2.979 3.04 6.901 4.438 10.792 4.438 3.922 0 7.813-1.49 10.792-4.438l98.555-98.585c5.928-5.928 5.928-15.565 0-21.492s-15.535-5.928-21.462 0z"/>
    </g>
</symbol><symbol id="icon-facebook" viewBox="0 0 96.124 96.123">
    <path d="M72.089.02L59.624 0C45.62 0 36.57 9.285 36.57 23.656v10.907H24.037a1.96 1.96 0 0 0-1.96 1.961v15.803a1.96 1.96 0 0 0 1.96 1.96H36.57v39.876a1.96 1.96 0 0 0 1.96 1.96h16.352a1.96 1.96 0 0 0 1.96-1.96V54.287h14.654a1.96 1.96 0 0 0 1.96-1.96l.006-15.803a1.963 1.963 0 0 0-1.961-1.961H56.842v-9.246c0-4.444 1.059-6.7 6.848-6.7l8.397-.003a1.96 1.96 0 0 0 1.959-1.96V1.98A1.96 1.96 0 0 0 72.089.02z"/>
</symbol><symbol id="icon-left-arrow" viewBox="0 0 129 129">
    <path d="M64.5 122.6c32 0 58.1-26 58.1-58.1s-26-58-58.1-58-58 26-58 58 26 58.1 58 58.1zm0-108c27.5 0 49.9 22.4 49.9 49.9S92 114.4 64.5 114.4 14.6 92 14.6 64.5 37 14.6 64.5 14.6z"/>
    <path d="M70 93.5c.8.8 1.8 1.2 2.9 1.2 1 0 2.1-.4 2.9-1.2 1.6-1.6 1.6-4.2 0-5.8L52.3 64.2l23.5-23.5c1.6-1.6 1.6-4.2 0-5.8s-4.2-1.6-5.8 0L43.6 61.3c-.8.8-1.2 1.8-1.2 2.9s.4 2.1 1.2 2.9L70 93.5z"/>
</symbol><symbol id="icon-location" viewBox="0 0 512 512">
    <path d="M256 0C156.748 0 76 80.748 76 180c0 33.534 9.289 66.26 26.869 94.652l142.885 230.257A15 15 0 0 0 258.499 512h.119a14.997 14.997 0 0 0 12.75-7.292L410.611 272.22C427.221 244.428 436 212.539 436 180 436 80.748 355.252 0 256 0zm128.866 256.818L258.272 468.186l-129.905-209.34C113.734 235.214 105.8 207.95 105.8 180c0-82.71 67.49-150.2 150.2-150.2S406.1 97.29 406.1 180c0 27.121-7.411 53.688-21.234 76.818z"/>
    <path d="M256 90c-49.626 0-90 40.374-90 90 0 49.309 39.717 90 90 90 50.903 0 90-41.233 90-90 0-49.626-40.374-90-90-90zm0 150.2c-33.257 0-60.2-27.033-60.2-60.2 0-33.084 27.116-60.2 60.2-60.2s60.1 27.116 60.1 60.2c0 32.683-26.316 60.2-60.1 60.2z"/>
</symbol><symbol id="icon-mail" viewBox="0 0 483.3 483.3">
    <path d="M424.3 57.75H59.1c-32.6 0-59.1 26.5-59.1 59.1v249.6c0 32.6 26.5 59.1 59.1 59.1h365.1c32.6 0 59.1-26.5 59.1-59.1v-249.5c.1-32.6-26.4-59.2-59-59.2zm32.1 308.7c0 17.7-14.4 32.1-32.1 32.1H59.1c-17.7 0-32.1-14.4-32.1-32.1v-249.5c0-17.7 14.4-32.1 32.1-32.1h365.1c17.7 0 32.1 14.4 32.1 32.1v249.5h.1z"/>
    <path d="M304.8 238.55l118.2-106c5.5-5 6-13.5 1-19.1-5-5.5-13.5-6-19.1-1l-163 146.3-31.8-28.4c-.1-.1-.2-.2-.2-.3-.7-.7-1.4-1.3-2.2-1.9L78.3 112.35c-5.6-5-14.1-4.5-19.1 1.1-5 5.6-4.5 14.1 1.1 19.1l119.6 106.9-119.1 111.5c-5.4 5.1-5.7 13.6-.6 19.1 2.7 2.8 6.3 4.3 9.9 4.3 3.3 0 6.6-1.2 9.2-3.6l120.9-113.1 32.8 29.3c2.6 2.3 5.8 3.4 9 3.4s6.5-1.2 9-3.5l33.7-30.2 120.2 114.2c2.6 2.5 6 3.7 9.3 3.7 3.6 0 7.1-1.4 9.8-4.2 5.1-5.4 4.9-14-.5-19.1l-118.7-112.7z"/>
</symbol><symbol id="icon-od" viewBox="0 0 512.008 512.008">
    <path d="M256.002 0c-70.592 0-128 57.408-128 128s57.408 128 128 128 128-57.408 128-128-57.408-128-128-128zm0 192c-35.296 0-64-28.704-64-64s28.704-64 64-64 64 28.704 64 64-28.704 64-64 64z"/>
    <path d="M425.73 252.448c-12.512-12.512-32.736-12.512-45.248 0-68.608 68.608-180.288 68.608-248.928 0-12.512-12.512-32.736-12.512-45.248 0s-12.512 32.736 0 45.28c39.808 39.808 90.272 62.496 142.304 68.416l-91.232 91.232c-12.512 12.512-12.512 32.736 0 45.248s32.736 12.512 45.248 0l73.376-73.376 73.376 73.376A31.912 31.912 0 0 0 352.002 512a31.912 31.912 0 0 0 22.624-9.376c12.512-12.512 12.512-32.736 0-45.248l-91.232-91.232c52.032-5.92 102.496-28.608 142.304-68.416 12.512-12.512 12.512-32.768.032-45.28z"/>
</symbol><symbol id="icon-phone" viewBox="0 0 473.806 473.806">
    <path d="M374.456 293.506c-9.7-10.1-21.4-15.5-33.8-15.5-12.3 0-24.1 5.3-34.2 15.4l-31.6 31.5c-2.6-1.4-5.2-2.7-7.7-4-3.6-1.8-7-3.5-9.9-5.3-29.6-18.8-56.5-43.3-82.3-75-12.5-15.8-20.9-29.1-27-42.6 8.2-7.5 15.8-15.3 23.2-22.8 2.8-2.8 5.6-5.7 8.4-8.5 21-21 21-48.2 0-69.2l-27.3-27.3c-3.1-3.1-6.3-6.3-9.3-9.5-6-6.2-12.3-12.6-18.8-18.6-9.7-9.6-21.3-14.7-33.5-14.7s-24 5.1-34 14.7l-.2.2-34 34.3c-12.8 12.8-20.1 28.4-21.7 46.5-2.4 29.2 6.2 56.4 12.8 74.2 16.2 43.7 40.4 84.2 76.5 127.6 43.8 52.3 96.5 93.6 156.7 122.7 23 10.9 53.7 23.8 88 26 2.1.1 4.3.2 6.3.2 23.1 0 42.5-8.3 57.7-24.8.1-.2.3-.3.4-.5 5.2-6.3 11.2-12 17.5-18.1 4.3-4.1 8.7-8.4 13-12.9 9.9-10.3 15.1-22.3 15.1-34.6 0-12.4-5.3-24.3-15.4-34.3l-54.9-55.1zm35.8 105.3c-.1 0-.1.1 0 0-3.9 4.2-7.9 8-12.2 12.2-6.5 6.2-13.1 12.7-19.3 20-10.1 10.8-22 15.9-37.6 15.9-1.5 0-3.1 0-4.6-.1-29.7-1.9-57.3-13.5-78-23.4-56.6-27.4-106.3-66.3-147.6-115.6-34.1-41.1-56.9-79.1-72-119.9-9.3-24.9-12.7-44.3-11.2-62.6 1-11.7 5.5-21.4 13.8-29.7l34.1-34.1c4.9-4.6 10.1-7.1 15.2-7.1 6.3 0 11.4 3.8 14.6 7l.3.3c6.1 5.7 11.9 11.6 18 17.9 3.1 3.2 6.3 6.4 9.5 9.7l27.3 27.3c10.6 10.6 10.6 20.4 0 31-2.9 2.9-5.7 5.8-8.6 8.6-8.4 8.6-16.4 16.6-25.1 24.4-.2.2-.4.3-.5.5-8.6 8.6-7 17-5.2 22.7l.3.9c7.1 17.2 17.1 33.4 32.3 52.7l.1.1c27.6 34 56.7 60.5 88.8 80.8 4.1 2.6 8.3 4.7 12.3 6.7 3.6 1.8 7 3.5 9.9 5.3.4.2.8.5 1.2.7 3.4 1.7 6.6 2.5 9.9 2.5 8.3 0 13.5-5.2 15.2-6.9l34.2-34.2c3.4-3.4 8.8-7.5 15.1-7.5 6.2 0 11.3 3.9 14.4 7.3l.2.2 55.1 55.1c10.3 10.2 10.3 20.7.1 31.3z"/>
    <path d="M256.056 112.706c26.2 4.4 50 16.8 69 35.8s31.3 42.8 35.8 69c1.1 6.6 6.8 11.2 13.3 11.2.8 0 1.5-.1 2.3-.2 7.4-1.2 12.3-8.2 11.1-15.6-5.4-31.7-20.4-60.6-43.3-83.5s-51.8-37.9-83.5-43.3c-7.4-1.2-14.3 3.7-15.6 11s3.5 14.4 10.9 15.6z"/>
    <path d="M473.256 209.006c-8.9-52.2-33.5-99.7-71.3-137.5s-85.3-62.4-137.5-71.3c-7.3-1.3-14.2 3.7-15.5 11-1.2 7.4 3.7 14.3 11.1 15.6 46.6 7.9 89.1 30 122.9 63.7 33.8 33.8 55.8 76.3 63.7 122.9 1.1 6.6 6.8 11.2 13.3 11.2.8 0 1.5-.1 2.3-.2 7.3-1.1 12.3-8.1 11-15.4z"/>
</symbol><symbol id="icon-plus" viewBox="0 0 96.828 96.827">
    <path d="M62.617 0H39.525c-10.29 0-17.413 2.256-23.824 7.552-5.042 4.35-8.051 10.672-8.051 16.912 0 9.614 7.33 19.831 20.913 19.831 1.306 0 2.752-.134 4.028-.253l-.188.457c-.546 1.308-1.063 2.542-1.063 4.468 0 3.75 1.809 6.063 3.558 8.298l.22.283-.391.027c-5.609.384-16.049 1.1-23.675 5.787-9.007 5.355-9.707 13.145-9.707 15.404 0 8.988 8.376 18.06 27.09 18.06 21.76 0 33.146-12.005 33.146-23.863.002-8.771-5.141-13.101-10.6-17.698l-4.605-3.582c-1.423-1.179-3.195-2.646-3.195-5.364 0-2.672 1.772-4.436 3.336-5.992l.163-.165c4.973-3.917 10.609-8.358 10.609-17.964 0-9.658-6.035-14.649-8.937-17.048h7.663a.488.488 0 0 0 .266-.077l6.601-4.15A.5.5 0 0 0 62.617 0zM34.614 91.535c-13.264 0-22.176-6.195-22.176-15.416 0-6.021 3.645-10.396 10.824-12.997 5.749-1.935 13.17-2.031 13.244-2.031 1.257 0 1.889 0 2.893.126 9.281 6.605 13.743 10.073 13.743 16.678-.001 8.414-7.101 13.64-18.528 13.64zm-.125-50.779c-11.132 0-15.752-14.633-15.752-22.468 0-3.984.906-7.042 2.77-9.351 2.023-2.531 5.487-4.166 8.825-4.166 10.221 0 15.873 13.738 15.873 23.233 0 1.498 0 6.055-3.148 9.22-2.117 2.113-5.56 3.532-8.568 3.532z"/>
    <path d="M94.982 45.223H82.814V33.098a.5.5 0 0 0-.5-.5H77.08a.5.5 0 0 0-.5.5v12.125H64.473a.5.5 0 0 0-.5.5v5.304a.5.5 0 0 0 .5.5H76.58V63.73a.5.5 0 0 0 .5.5h5.234c.275 0 .5-.225.5-.5V51.525h12.168a.5.5 0 0 0 .5-.5v-5.302c0-.277-.223-.5-.5-.5z"/>
</symbol><symbol id="icon-right-arrow-1" viewBox="0 0 129 129">
    <path d="M40.4 121.3c-.8.8-1.8 1.2-2.9 1.2s-2.1-.4-2.9-1.2c-1.6-1.6-1.6-4.2 0-5.8l51-51-51-51c-1.6-1.6-1.6-4.2 0-5.8 1.6-1.6 4.2-1.6 5.8 0l53.9 53.9c1.6 1.6 1.6 4.2 0 5.8l-53.9 53.9z"/>
</symbol><symbol id="icon-right-arrow" viewBox="0 0 129 129">
    <path d="M64.5 122.6c32 0 58.1-26 58.1-58.1S96.5 6.4 64.5 6.4 6.4 32.5 6.4 64.5s26.1 58.1 58.1 58.1zm0-108c27.5 0 49.9 22.4 49.9 49.9S92 114.4 64.5 114.4 14.6 92 14.6 64.5 37 14.6 64.5 14.6z"/>
    <path d="M51.1 93.5c.8.8 1.8 1.2 2.9 1.2 1 0 2.1-.4 2.9-1.2l26.4-26.4c.8-.8 1.2-1.8 1.2-2.9 0-1.1-.4-2.1-1.2-2.9L56.9 34.9c-1.6-1.6-4.2-1.6-5.8 0-1.6 1.6-1.6 4.2 0 5.8l23.5 23.5-23.5 23.5c-1.6 1.6-1.6 4.2 0 5.8z"/>
</symbol><symbol id="icon-search" viewBox="0 0 446.25 446.25">
    <path d="M318.75 280.5h-20.4l-7.649-7.65c25.5-28.05 40.8-66.3 40.8-107.1C331.5 73.95 257.55 0 165.75 0S0 73.95 0 165.75 73.95 331.5 165.75 331.5c40.8 0 79.05-15.3 107.1-40.8l7.65 7.649v20.4L408 446.25 446.25 408l-127.5-127.5zm-153 0C102 280.5 51 229.5 51 165.75S102 51 165.75 51 280.5 102 280.5 165.75s-51 114.75-114.75 114.75z"/>
</symbol><symbol id="icon-twitter" viewBox="0 0 612 612">
    <path d="M612 116.258a250.714 250.714 0 0 1-72.088 19.772c25.929-15.527 45.777-40.155 55.184-69.411-24.322 14.379-51.169 24.82-79.775 30.48-22.907-24.437-55.49-39.658-91.63-39.658-69.334 0-125.551 56.217-125.551 125.513 0 9.828 1.109 19.427 3.251 28.606-104.326-5.24-196.835-55.223-258.75-131.174-10.823 18.51-16.98 40.078-16.98 63.101 0 43.559 22.181 81.993 55.835 104.479a125.556 125.556 0 0 1-56.867-15.756v1.568c0 60.806 43.291 111.554 100.693 123.104-10.517 2.83-21.607 4.398-33.08 4.398-8.107 0-15.947-.803-23.634-2.333 15.985 49.907 62.336 86.199 117.253 87.194-42.947 33.654-97.099 53.655-155.916 53.655-10.134 0-20.116-.612-29.944-1.721 55.567 35.681 121.536 56.485 192.438 56.485 230.948 0 357.188-191.291 357.188-357.188l-.421-16.253c24.666-17.593 46.005-39.697 62.794-64.861z"/>
</symbol><symbol id="icon-vk" viewBox="0 0 548.358 548.358">
    <path d="M545.451 400.298c-.664-1.431-1.283-2.618-1.858-3.569-9.514-17.135-27.695-38.167-54.532-63.102l-.567-.571-.284-.28-.287-.287h-.288c-12.18-11.611-19.893-19.418-23.123-23.415-5.91-7.614-7.234-15.321-4.004-23.13 2.282-5.9 10.854-18.36 25.696-37.397 7.807-10.089 13.99-18.175 18.556-24.267 32.931-43.78 47.208-71.756 42.828-83.939l-1.701-2.847c-1.143-1.714-4.093-3.282-8.846-4.712-4.764-1.427-10.853-1.663-18.278-.712l-82.224.568c-1.332-.472-3.234-.428-5.712.144l-3.713.859-1.431.715-1.136.859c-.952.568-1.999 1.567-3.142 2.995-1.137 1.423-2.088 3.093-2.848 4.996-8.952 23.031-19.13 44.444-30.553 64.238-7.043 11.803-13.511 22.032-19.418 30.693-5.899 8.658-10.848 15.037-14.842 19.126-4 4.093-7.61 7.372-10.852 9.849-3.237 2.478-5.708 3.525-7.419 3.142-1.715-.383-3.33-.763-4.859-1.143-2.663-1.714-4.805-4.045-6.42-6.995-1.622-2.95-2.714-6.663-3.285-11.136-.568-4.476-.904-8.326-1-11.563-.089-3.233-.048-7.806.145-13.706.198-5.903.287-9.897.287-11.991 0-7.234.141-15.085.424-23.555.288-8.47.521-15.181.716-20.125.194-4.949.284-10.185.284-15.705s-.336-9.849-1-12.991a44.442 44.442 0 0 0-2.99-9.137c-1.335-2.95-3.289-5.232-5.853-6.852-2.569-1.618-5.763-2.902-9.564-3.856-10.089-2.283-22.936-3.518-38.547-3.71-35.401-.38-58.148 1.906-68.236 6.855-3.997 2.091-7.614 4.948-10.848 8.562-3.427 4.189-3.905 6.475-1.431 6.851 11.422 1.711 19.508 5.804 24.267 12.275l1.715 3.429c1.334 2.474 2.666 6.854 3.999 13.134 1.331 6.28 2.19 13.227 2.568 20.837.95 13.897.95 25.793 0 35.689-.953 9.9-1.853 17.607-2.712 23.127-.859 5.52-2.143 9.993-3.855 13.418-1.715 3.426-2.856 5.52-3.428 6.28-.571.76-1.047 1.239-1.425 1.427a21.387 21.387 0 0 1-7.71 1.431c-2.667 0-5.901-1.334-9.707-4-3.805-2.666-7.754-6.328-11.847-10.992-4.093-4.665-8.709-11.184-13.85-19.558-5.137-8.374-10.467-18.271-15.987-29.691l-4.567-8.282c-2.855-5.328-6.755-13.086-11.704-23.267-4.952-10.185-9.329-20.037-13.134-29.554-1.521-3.997-3.806-7.04-6.851-9.134l-1.429-.859c-.95-.76-2.475-1.567-4.567-2.427a30.301 30.301 0 0 0-6.567-1.854l-78.229.568c-7.994 0-13.418 1.811-16.274 5.428l-1.143 1.711c-.571.953-.859 2.475-.859 4.57 0 2.094.571 4.664 1.714 7.707 11.42 26.84 23.839 52.725 37.257 77.659 13.418 24.934 25.078 45.019 34.973 60.237 9.897 15.229 19.985 29.602 30.264 43.112 10.279 13.515 17.083 22.176 20.412 25.981 3.333 3.812 5.951 6.662 7.854 8.565l7.139 6.851c4.568 4.569 11.276 10.041 20.127 16.416 8.853 6.379 18.654 12.659 29.408 18.85 10.756 6.181 23.269 11.225 37.546 15.126 14.275 3.905 28.169 5.472 41.684 4.716h32.834c6.659-.575 11.704-2.669 15.133-6.283l1.136-1.431c.764-1.136 1.479-2.901 2.139-5.276.668-2.379 1-5 1-7.851-.195-8.183.428-15.558 1.852-22.124 1.423-6.564 3.045-11.513 4.859-14.846 1.813-3.33 3.859-6.14 6.136-8.418 2.282-2.283 3.908-3.666 4.862-4.142.948-.479 1.705-.804 2.276-.999 4.568-1.522 9.944-.048 16.136 4.429 6.187 4.473 11.99 9.996 17.418 16.56 5.425 6.57 11.943 13.941 19.555 22.124 7.617 8.186 14.277 14.271 19.985 18.274l5.708 3.426c3.812 2.286 8.761 4.38 14.853 6.283 6.081 1.902 11.409 2.378 15.984 1.427l73.087-1.14c7.229 0 12.854-1.197 16.844-3.572 3.998-2.379 6.373-5 7.139-7.851.764-2.854.805-6.092.145-9.712-.677-3.611-1.344-6.136-2.008-7.563z"/>
</symbol><symbol id="icon-youtube" viewBox="0 0 512 512">
    <path d="M490.24 113.92c-13.888-24.704-28.96-29.248-59.648-30.976C399.936 80.864 322.848 80 256.064 80c-66.912 0-144.032.864-174.656 2.912-30.624 1.76-45.728 6.272-59.744 31.008C7.36 138.592 0 181.088 0 255.904v.256c0 74.496 7.36 117.312 21.664 141.728 14.016 24.704 29.088 29.184 59.712 31.264C112.032 430.944 189.152 432 256.064 432c66.784 0 143.872-1.056 174.56-2.816 30.688-2.08 45.76-6.56 59.648-31.264C504.704 373.504 512 330.688 512 256.192v-.16-.096c0-74.848-7.296-117.344-21.76-142.016zM192 352V160l160 96-160 96z"/>
</symbol></svg>